<?xml version="1.0" encoding="UTF-8" standalone="no"?>
<svg
   xmlns:dc="http://purl.org/dc/elements/1.1/"
   xmlns:cc="http://creativecommons.org/ns#"
   xmlns:rdf="http://www.w3.org/1999/02/22-rdf-syntax-ns#"
   xmlns:svg="http://www.w3.org/2000/svg"
   xmlns="http://www.w3.org/2000/svg"
   viewBox="0 0 189.00282 189.99948"
   height="189.99948"
   width="189.00282"
   id="svg2"
   version="1.1">
  <metadata
     id="metadata8">
    <rdf:RDF>
      <cc:Work
         rdf:about="">
        <dc:format>image/svg+xml</dc:format>
        <dc:type
           rdf:resource="http://purl.org/dc/dcmitype/StillImage" />
        <dc:title></dc:title>
      </cc:Work>
    </rdf:RDF>
  </metadata>
  <defs
     id="defs6" />
  <g
     transform="translate(-17.997171,-21.998726)"
     id="g10">
    <path
       id="path14"
       d="M 24.298549,210.04048 C 17.664564,205.99551 18,210.97038 18,116.62639 V 31.153451 l 2.703309,-3.2127 C 25.905662,21.758105 22.167889,22 112.5,22 c 90.33211,0 86.59434,-0.241895 91.79669,5.940751 l 2.70331,3.2127 -0.004,85.673279 c -0.004,84.1667 -0.0392,85.73148 -2.02189,88.98345 -3.91854,6.42715 -0.34886,6.1902 -93.19225,6.18608 -81.828329,-0.004 -84.375327,-0.0606 -87.483571,-1.95578 z m 172.666821,-1.34692 c 1.98849,-0.68489 4.44606,-2.65209 5.76647,-4.61587 l 2.30109,-3.42231 -0.26647,-84.80872 L 204.5,31.03795 201.23118,27.768975 197.96236,24.5 116.73118,24.19792 c -44.677149,-0.166144 -83.172232,-0.02179 -85.544629,0.320788 -2.687485,0.388076 -5.514625,1.696119 -7.5,3.470051 L 20.5,30.835942 v 86.001468 86.00146 l 2.444899,2.60248 c 1.344694,1.43136 3.819694,3.00203 5.5,3.49037 4.918142,1.42936 164.333131,1.20406 168.520471,-0.23816 z M 25.613193,204.7041 c -2.224344,-2.22434 -2.315182,-3.02685 -2.914677,-25.75 -0.984498,-37.31613 -0.702845,-142.643235 0.38982,-145.777655 0.53281,-1.528422 2.262834,-3.543386 3.844497,-4.477697 C 29.57605,27.137361 36.483494,27 112.35724,27 c 56.55874,0 83.28884,0.337249 84.8996,1.071164 C 202.65193,30.52933 202.5,28.575469 202.5,95.5 c 0,34.1 -0.225,72.26417 -0.5,84.80926 l -0.5,22.80926 -2.5,1.9185 c -2.41852,1.85598 -5.24733,1.91923 -86.79545,1.94074 L 27.909091,207 Z M 198.54545,202.54545 201,200.09091 V 117.99579 C 201,30.92197 201.0232,31.374108 196.4552,29.621181 195.56487,29.279532 157.52323,29 111.91821,29 c -81.228829,0 -82.95844,0.04023 -84.892774,1.974564 -1.08601,1.08601 -2.225003,2.99851 -2.531095,4.25 -0.306092,1.25149 -0.430038,39.01583 -0.275436,83.920756 0.270857,78.67153 0.350481,81.72198 2.186083,83.75 L 28.309975,205 h 83.890465 83.89047 z M 106.63029,190.75 c -0.33164,-1.2375 -0.60913,-4.36944 -0.61664,-6.95986 -0.0134,-4.63232 -0.0801,-4.72978 -4.05262,-5.91996 -4.007644,-1.20072 -4.071919,-1.17777 -8.28785,2.95986 C 91.336294,183.12352 88.936142,185 88.339508,185 87.16771,185 79,176.52288 79,175.30669 c 0,-0.40589 2.018883,-2.7877 4.486407,-5.29289 l 4.486407,-4.5549 -1.736407,-3.69688 C 84.618982,158.31845 84.191651,158.06196 80,158.01891 71.324199,157.9298 71,157.64094 71,150 c 0,-7.65965 0.342567,-7.96035 9.09831,-7.98635 4.41352,-0.0131 4.65998,-0.17065 6.132909,-3.92036 l 1.534599,-3.90671 -4.382909,-4.3015 C 80.972309,127.51926 79,125.13181 79,124.57964 79,123.259 87.124691,115 88.423859,115 c 0.554093,0 3.055787,2.01754 5.559318,4.48343 l 4.551876,4.48343 3.732477,-1.69178 C 105.88339,120.63616 106,120.42054 106,115.37344 106,107.24422 106.23305,107 113.99036,107 c 7.66325,0 7.96984,0.34669 7.99599,9.04165 0.0128,4.27064 0.23638,4.64262 3.74612,6.23343 l 3.73248,1.69178 4.65094,-4.58101 c 3.85514,-3.79717 4.97033,-4.40576 6.51753,-3.55682 2.24422,1.23139 8.36658,7.67126 8.36658,8.80049 0,0.44098 -2.05128,2.88437 -4.55839,5.42976 l -4.55839,4.62798 1.7436,3.65637 c 1.62887,3.41578 2.04397,3.65727 6.30839,3.67002 8.72054,0.0261 9.06479,0.32975 9.06479,7.99599 0,7.77049 -0.2332,7.99036 -8.47483,7.99036 -5.19979,0 -5.34326,0.0787 -6.83564,3.75 l -1.52438,3.75 4.41743,4.53435 c 2.42958,2.49389 4.41742,4.86645 4.41742,5.27234 0,1.264 -8.1909,9.69331 -9.41915,9.69331 -0.64044,0 -3.10011,-1.97231 -5.46593,-4.38291 l -4.3015,-4.38291 -3.90671,1.5346 c -3.74971,1.47293 -3.90726,1.71939 -3.92036,6.13291 C 121.96035,192.65743 121.65965,193 114,193 c -6.17203,0 -6.81973,-0.19775 -7.36971,-2.25 z m 12.57402,-6.36522 0.29569,-6.61522 5.35212,-1.99276 5.35213,-1.99276 4.18572,4.10798 c 2.30216,2.25939 4.63099,4.10798 5.1752,4.10798 1.02174,0 6.43483,-5.73288 6.43483,-6.81498 0,-0.33512 -1.83849,-2.4826 -4.08552,-4.77216 l -4.08552,-4.16284 1.80579,-5.08434 1.8058,-5.08434 6.52972,-0.29067 L 154.5,155.5 l 0.31105,-4.90325 c 0.37535,-5.91686 -0.39038,-6.56079 -7.82633,-6.58144 L 141.46944,144 l -1.82124,-5.12781 -1.82124,-5.12781 4.57775,-4.64763 4.57774,-4.64763 -3.71578,-3.71579 -3.71579,-3.71578 -4.7127,4.64183 -4.7127,4.64184 -4.81274,-1.96922 c -4.64726,-1.90152 -4.82181,-2.1216 -5.07646,-6.40061 -0.52823,-8.87608 -0.6729,-9.06989 -6.51817,-8.73254 L 108.5,109.5 l -0.5,6.32718 -0.5,6.32718 -4.8099,2.07624 -4.80989,2.07623 -4.715546,-4.64464 -4.715546,-4.64464 -3.715785,3.71578 -3.715784,3.71579 4.641836,4.7127 4.641836,4.7127 -1.969225,4.81274 c -1.901515,4.64726 -2.121591,4.82181 -6.40061,5.07646 C 73.305268,144.27707 73,144.48722 73,149.91206 73,155.54828 73.619347,156 81.347068,156 h 5.183494 l 1.820241,5.12501 1.820242,5.12501 -4.085523,4.16284 C 83.838485,172.70242 82,174.98405 82,175.48313 82,176.75181 87.153462,182 88.39924,182 c 0.563781,0 2.898337,-1.83849 5.187901,-4.08552 l 4.162844,-4.08552 5.125005,1.82024 5.12501,1.82024 v 5.18349 c 0,7.72096 0.45465,8.34707 6.0613,8.34707 h 4.84732 z M 107.24086,162.0054 c -4.21087,-2.56739 -7.23338,-7.58393 -7.23338,-12.0054 0,-6.81807 6.9145,-13.98992 13.49252,-13.99471 3.90676,-0.003 9.36477,2.82146 11.75215,6.08129 8.44367,11.52928 -5.84819,27.33476 -18.01129,19.91882 z m 14.08539,-2.80066 c 7.1058,-6.43065 5.01535,-17.28675 -3.89499,-20.22743 -4.35107,-1.43598 -7.36016,-0.74946 -11.32018,2.58268 -8.404833,7.0722 -1.59385,21.57673 9.3628,19.93883 2.18563,-0.32673 4.8192,-1.35906 5.85237,-2.29408 z M 97.322378,87.497836 C 89.72007,78.906322 83.5,71.342099 83.5,70.688451 c 0,-0.771353 2.368977,-1.292226 6.75,-1.484141 L 97,68.90862 97.222211,62.20431 C 97.344427,58.51694 97.456927,52.35 97.472211,48.5 l 0.02779,-7 H 112.5 h 15 l 0.0261,6.5 c 0.0143,3.575 0.12683,9.7625 0.25,13.75 L 128,69 h 6.44098 c 3.54254,0 6.72907,0.466137 7.08118,1.035859 0.77542,1.254645 -26.51855,32.335221 -28.78066,32.773531 -1.00943,0.19558 -6.68094,-5.436365 -15.419122,-15.311554 z M 136.45594,74.25 139.17779,71 H 132.58889 126 V 57 43 H 112.5 99 v 14 14 h -6.628159 -6.62816 l 2.37816,2.925684 c 1.307987,1.609126 7.31069,8.504906 13.339339,15.323955 l 10.96118,12.398271 10.65587,-12.073955 C 128.93895,82.93328 134.95892,76.0375 136.45594,74.25 Z"
       style="fill:#000000" />
    <path
       id="path16"
       d="m 109.82905,190.15631 c -0.5385,-0.36237 -1.02395,-0.98537 -1.21184,-1.55521 -0.17241,-0.52286 -0.39812,-3.27983 -0.50158,-6.12658 l -0.18812,-5.17592 -2.27457,-0.82654 c -1.25101,-0.45459 -3.53717,-1.25765 -5.08035,-1.78458 l -2.805781,-0.95805 -3.275296,3.07908 c -4.563994,4.29058 -5.600762,5.06701 -6.473462,4.84798 -0.833932,-0.2093 -4.871778,-4.17054 -5.51077,-5.40621 l -0.449069,-0.86841 0.951159,-1.22085 c 0.523138,-0.67147 2.380874,-2.73873 4.128302,-4.5939 l 3.177143,-3.37304 -1.812579,-5.10056 -1.812578,-5.10057 -5.404172,-0.14072 c -5.809929,-0.15129 -6.484471,-0.29705 -7.456671,-1.61126 -0.596516,-0.80636 -0.911295,-4.24025 -0.609857,-6.65287 0.337846,-2.70404 1.282002,-3.15081 7.659805,-3.62464 3.955658,-0.29388 4.898077,-0.543 5.792363,-1.53118 0.53282,-0.58876 3.619707,-7.83418 3.619707,-8.49603 0,-0.23248 -2.022506,-2.44258 -4.494459,-4.91132 l -4.49446,-4.48863 3.632064,-3.63903 3.632064,-3.63902 4.635119,4.62975 4.635119,4.62975 4.905499,-2.13629 4.9055,-2.13629 0.47791,-6.29023 0.47791,-6.29023 2.14675,-0.16714 c 1.18071,-0.0919 3.23124,-0.16785 4.55674,-0.16872 3.88979,-0.003 4.12449,0.36636 4.71338,7.40905 0.40533,4.84751 0.68621,5.56942 2.53072,6.5044 1.09907,0.55713 6.62796,2.87292 7.29881,3.05714 0.16282,0.0447 2.43307,-1.96303 5.04501,-4.46165 l 4.74898,-4.54294 3.52806,3.53534 3.52806,3.53534 -4.51111,4.71167 -4.51111,4.71167 1.84648,5.1965 1.84648,5.19649 5.46054,0.0914 c 6.31614,0.10576 6.81512,0.24549 7.56449,2.11834 0.38494,0.96205 0.42369,1.65578 0.26478,4.73996 -0.10238,1.98712 -0.27546,3.75748 -0.38463,3.93412 -0.13862,0.22428 -2.10276,0.40406 -6.51139,0.59598 -3.4721,0.15115 -6.34835,0.30313 -6.39168,0.33774 -0.0433,0.0346 -0.89665,2.35885 -1.89628,5.16499 l -1.81751,5.10207 3.75725,3.89778 c 2.06648,2.14378 3.91917,4.20035 4.11708,4.57015 0.33642,0.62861 0.28665,0.76724 -0.76463,2.1299 -1.3657,1.77019 -4.64713,4.90712 -5.13319,4.90712 -0.64512,0 -2.64582,-1.64495 -6.00131,-4.9342 l -3.32264,-3.25706 -5.4351,2.02075 -5.4351,2.02075 -0.15948,2.66977 c -0.0877,1.46837 -0.23772,4.42468 -0.33334,6.56959 l -0.17385,3.89982 h -4.02346 c -3.75335,0 -4.08378,-0.0406 -4.92185,-0.60456 z m 6.40249,-26.36773 c 4.81095,-0.90672 9.27741,-4.9789 10.99862,-10.0277 0.65221,-1.91315 0.79634,-5.077 0.32451,-7.12363 -1.29351,-5.61077 -7.90488,-10.65254 -13.99709,-10.67406 -7.53521,-0.0266 -14.778463,8.47829 -13.49542,15.84607 0.80517,4.6236 4.26047,9.10338 8.52876,11.05746 2.46854,1.13014 4.94815,1.42931 7.64062,0.92186 z"
       style="fill:#a0a0a0;stroke:none;stroke-width:0.264395" />
    <path
       id="path18"
       d="M 108.13749,96.583965 C 94.711058,81.295657 90.205011,76.134165 88.325834,73.890537 l -2.097197,-2.503933 6.393613,-0.0708 6.393614,-0.0708 V 57.23678 43.228555 H 112.5 125.98414 V 57.23678 71.245005 l 6.34872,0.0708 6.34873,0.0708 -3.85579,4.481297 c -3.66096,4.254869 -19.25219,22.008963 -21.4333,24.406588 l -1.0247,1.12642 z"
       style="fill:#a0a0a0;stroke:none;stroke-width:0.264395" />
  </g>
</svg>
